<svg width="120" height="120" viewBox="0 0 120 120" fill="none" xmlns="http://www.w3.org/2000/svg">
<circle cx="60" cy="60" r="60" fill="#F37945"/>
<path d="M28.574 57.092H28.496L27.17 59.744L23.634 66.166L20.176 59.77L18.798 56.91H18.72V69H15.002V50.852H19.188L23.634 59.354H23.686L28.08 50.852H32.292V69H28.574V57.092ZM47.4847 69L46.1847 64.684H40.1267L38.8267 69H34.8227L40.8027 50.852H45.6907L51.5927 69H47.4847ZM43.1947 54.44H43.0647L41.0627 61.33H45.2227L43.1947 54.44ZM59.6416 60.42L57.8996 56.78H57.8216V69H54.1036V50.852H58.4196L63.3856 59.432L65.1276 63.072H65.2056V50.852H68.9236V69H64.6076L59.6416 60.42ZM72.918 50.852H79.756C80.952 50.852 82.044 51.0427 83.032 51.424C84.02 51.8054 84.8607 52.3774 85.554 53.14C86.2473 53.8854 86.7847 54.83 87.166 55.974C87.5473 57.1007 87.738 58.418 87.738 59.926C87.738 61.434 87.5473 62.76 87.166 63.904C86.7847 65.0307 86.2473 65.9753 85.554 66.738C84.8607 67.4833 84.02 68.0467 83.032 68.428C82.044 68.8093 80.952 69 79.756 69H72.918V50.852ZM79.756 65.49C80.9347 65.49 81.862 65.1607 82.538 64.502C83.214 63.8433 83.552 62.786 83.552 61.33V58.522C83.552 57.066 83.214 56.0087 82.538 55.35C81.862 54.6914 80.9347 54.362 79.756 54.362H76.87V65.49H79.756ZM98.3269 69.312C97.1309 69.312 96.0389 69.1127 95.0509 68.714C94.0629 68.3153 93.2223 67.726 92.5289 66.946C91.8356 66.1487 91.2983 65.1693 90.9169 64.008C90.5356 62.8293 90.3449 61.4687 90.3449 59.926C90.3449 58.3834 90.5356 57.0314 90.9169 55.87C91.2983 54.6914 91.8356 53.712 92.5289 52.932C93.2223 52.1347 94.0629 51.5367 95.0509 51.138C96.0389 50.7394 97.1309 50.54 98.3269 50.54C99.5229 50.54 100.615 50.7394 101.603 51.138C102.591 51.5367 103.432 52.1347 104.125 52.932C104.818 53.712 105.356 54.6914 105.737 55.87C106.118 57.0314 106.309 58.3834 106.309 59.926C106.309 61.4687 106.118 62.8293 105.737 64.008C105.356 65.1693 104.818 66.1487 104.125 66.946C103.432 67.726 102.591 68.3153 101.603 68.714C100.615 69.1127 99.5229 69.312 98.3269 69.312ZM98.3269 65.802C99.5229 65.802 100.45 65.412 101.109 64.632C101.785 63.852 102.123 62.734 102.123 61.278V58.574C102.123 57.118 101.785 56 101.109 55.22C100.45 54.44 99.5229 54.05 98.3269 54.05C97.1309 54.05 96.1949 54.44 95.5189 55.22C94.8603 56 94.5309 57.118 94.5309 58.574V61.278C94.5309 62.734 94.8603 63.852 95.5189 64.632C96.1949 65.412 97.1309 65.802 98.3269 65.802Z" fill="black"/>
</svg>
