<svg width="92" height="20" viewBox="0 0 92 20" fill="none" xmlns="http://www.w3.org/2000/svg">
<path d="M13.574 7.092H13.496L12.17 9.744L8.634 16.166L5.176 9.77L3.798 6.91H3.72V19H0.00200018V0.852H4.188L8.634 9.354H8.686L13.08 0.852H17.292V19H13.574V7.092ZM32.4847 19L31.1847 14.684H25.1267L23.8267 19H19.8227L25.8027 0.852H30.6907L36.5927 19H32.4847ZM28.1947 4.44H28.0647L26.0627 11.33H30.2227L28.1947 4.44ZM44.6416 10.42L42.8996 6.78H42.8216V19H39.1036V0.852H43.4196L48.3856 9.432L50.1276 13.072H50.2056V0.852H53.9236V19H49.6076L44.6416 10.42ZM57.918 0.852H64.756C65.952 0.852 67.044 1.04267 68.032 1.424C69.02 1.80533 69.8607 2.37733 70.554 3.14C71.2473 3.88533 71.7847 4.83 72.166 5.974C72.5473 7.10067 72.738 8.418 72.738 9.926C72.738 11.434 72.5473 12.76 72.166 13.904C71.7847 15.0307 71.2473 15.9753 70.554 16.738C69.8607 17.4833 69.02 18.0467 68.032 18.428C67.044 18.8093 65.952 19 64.756 19H57.918V0.852ZM64.756 15.49C65.9347 15.49 66.862 15.1607 67.538 14.502C68.214 13.8433 68.552 12.786 68.552 11.33V8.522C68.552 7.066 68.214 6.00867 67.538 5.35C66.862 4.69133 65.9347 4.362 64.756 4.362H61.87V15.49H64.756ZM83.3269 19.312C82.1309 19.312 81.0389 19.1127 80.0509 18.714C79.0629 18.3153 78.2223 17.726 77.5289 16.946C76.8356 16.1487 76.2983 15.1693 75.9169 14.008C75.5356 12.8293 75.3449 11.4687 75.3449 9.926C75.3449 8.38333 75.5356 7.03133 75.9169 5.87C76.2983 4.69133 76.8356 3.712 77.5289 2.932C78.2223 2.13467 79.0629 1.53667 80.0509 1.138C81.0389 0.739332 82.1309 0.539999 83.3269 0.539999C84.5229 0.539999 85.6149 0.739332 86.6029 1.138C87.5909 1.53667 88.4316 2.13467 89.1249 2.932C89.8183 3.712 90.3556 4.69133 90.7369 5.87C91.1183 7.03133 91.3089 8.38333 91.3089 9.926C91.3089 11.4687 91.1183 12.8293 90.7369 14.008C90.3556 15.1693 89.8183 16.1487 89.1249 16.946C88.4316 17.726 87.5909 18.3153 86.6029 18.714C85.6149 19.1127 84.5229 19.312 83.3269 19.312ZM83.3269 15.802C84.5229 15.802 85.4503 15.412 86.1089 14.632C86.7849 13.852 87.1229 12.734 87.1229 11.278V8.574C87.1229 7.118 86.7849 6 86.1089 5.22C85.4503 4.44 84.5229 4.05 83.3269 4.05C82.1309 4.05 81.1949 4.44 80.5189 5.22C79.8603 6 79.5309 7.118 79.5309 8.574V11.278C79.5309 12.734 79.8603 13.852 80.5189 14.632C81.1949 15.412 82.1309 15.802 83.3269 15.802Z" fill="black"/>
</svg>
