<svg width="817" height="792" viewBox="0 0 817 792" fill="none" xmlns="http://www.w3.org/2000/svg">
<g filter="url(#filter0_d_79_56)">
<path d="M17 294.319C110.137 240.416 191.872 174.201 277.864 111.108C309.712 87.7405 344.665 68.7061 380.718 51.7476C397.469 43.8685 415.69 35.3504 433.569 29.9521C448.89 25.3258 463.715 16.3024 479.372 13.285C490.645 11.1125 493.626 21.7992 489.129 30.4649C473.185 61.1935 439.961 90.052 415.274 114.314C377.861 151.082 334.891 181.592 291.55 211.752C256.568 236.096 220.394 259.455 186.256 284.831C173.959 293.972 164.885 307.028 154.682 318.166C144.194 329.614 135.103 343.688 130.425 358.295C128.192 365.268 179.127 352.902 181.784 352.013C251.522 328.685 311.232 284.094 369.2 241.881C413.976 209.275 457.551 174.556 503.765 143.802C569.868 99.8118 643.765 68.7515 717.605 38.5421C725.358 35.3703 732.938 35.5349 727.091 45.3372C716.601 62.9224 699.993 79.038 685.624 93.4155C642.227 136.837 593.816 175.463 548.349 216.881C470.824 287.5 393.163 356.891 313.233 425.092C275.11 457.62 236.362 491.47 201.569 527.274C199.37 529.538 171.61 555.452 184.495 551.506C212.612 542.894 240.601 527.967 266.616 515.479C339.187 480.643 408.243 441.273 476.933 400.091C563.941 347.927 654.08 300.867 741.726 249.702C757.512 240.487 776.614 225.992 794.712 220.855C800.947 219.086 800.669 224.159 798.913 228.419C795.283 237.231 788.259 245.522 782.516 252.907C741.429 305.744 700.085 358.327 659.47 411.502C565.563 534.445 451.569 641.899 356.868 764.076C356.047 765.135 352.981 768.328 353.616 770.23C354.272 772.195 357.839 769.787 357.952 769.717C372.505 760.689 386.09 750.336 400.232 740.742C494.981 676.468 591.71 614.109 690.502 555.48C716.089 540.295 742.155 527.869 768.287 513.556" stroke="#FFE602" strokeWidth="25" strokeLinecap="round"/>
</g>
<defs>
<filter id="filter0_d_79_56" x="0.498047" y="0.500946" width="816.002" height="790.998" filterUnits="userSpaceOnUse" colorInterpolationFilters="sRGB">
<feFlood floodOpacity="0" result="BackgroundImageFix"/>
<feColorMatrix in="SourceAlpha" type="matrix" values="0 0 0 0 0 0 0 0 0 0 0 0 0 0 0 0 0 0 127 0" result="hardAlpha"/>
<feOffset dy="4"/>
<feGaussianBlur stdDeviation="2"/>
<feComposite in2="hardAlpha" operator="out"/>
<feColorMatrix type="matrix" values="0 0 0 0 0 0 0 0 0 0 0 0 0 0 0 0 0 0 0.25 0"/>
<feBlend mode="normal" in2="BackgroundImageFix" result="effect1_dropShadow_79_56"/>
<feBlend mode="normal" in="SourceGraphic" in2="effect1_dropShadow_79_56" result="shape"/>
</filter>
</defs>
</svg>
